<svg xmlns="http://www.w3.org/2000/svg" width="14.096" height="14.096" viewBox="0 0 14.096 14.096">
  <path id="Icon_awesome-facebook-square" data-name="Icon awesome-facebook-square" d="M12.586,2.25H1.51A1.51,1.51,0,0,0,0,3.76V14.836a1.51,1.51,0,0,0,1.51,1.51H5.829V11.554H3.847V9.3H5.829V7.579A2.753,2.753,0,0,1,8.776,4.543a12.009,12.009,0,0,1,1.747.152V6.615H9.539A1.128,1.128,0,0,0,8.267,7.833V9.3h2.164l-.346,2.256H8.267v4.792h4.319a1.51,1.51,0,0,0,1.51-1.51V3.76a1.51,1.51,0,0,0-1.51-1.51Z" transform="translate(0 -2.25)" fill="#020117"/>
</svg>
