<svg xmlns="http://www.w3.org/2000/svg" width="14.096" height="14.093" viewBox="0 0 14.096 14.093">
  <path id="Icon_awesome-instagram" data-name="Icon awesome-instagram" d="M7.044,5.671a3.613,3.613,0,1,0,3.613,3.613A3.608,3.608,0,0,0,7.044,5.671Zm0,5.962A2.349,2.349,0,1,1,9.393,9.284,2.353,2.353,0,0,1,7.044,11.633Zm4.6-6.11a.843.843,0,1,1-.843-.843A.841.841,0,0,1,11.648,5.523Zm2.393.855A4.171,4.171,0,0,0,12.9,3.426,4.2,4.2,0,0,0,9.95,2.287c-1.164-.066-4.651-.066-5.815,0A4.192,4.192,0,0,0,1.183,3.422,4.184,4.184,0,0,0,.044,6.375c-.066,1.164-.066,4.651,0,5.815a4.171,4.171,0,0,0,1.138,2.953,4.2,4.2,0,0,0,2.953,1.138c1.164.066,4.651.066,5.815,0A4.171,4.171,0,0,0,12.9,15.143a4.2,4.2,0,0,0,1.138-2.953c.066-1.164.066-4.648,0-5.811Zm-1.5,7.06a2.378,2.378,0,0,1-1.34,1.34,15.532,15.532,0,0,1-4.154.283,15.653,15.653,0,0,1-4.154-.283,2.378,2.378,0,0,1-1.34-1.34,15.532,15.532,0,0,1-.283-4.154A15.653,15.653,0,0,1,1.551,5.13,2.378,2.378,0,0,1,2.89,3.79a15.532,15.532,0,0,1,4.154-.283A15.653,15.653,0,0,1,11.2,3.79a2.378,2.378,0,0,1,1.34,1.34,15.532,15.532,0,0,1,.283,4.154A15.523,15.523,0,0,1,12.538,13.438Z" transform="translate(0.005 -2.238)" fill="#020117"/>
</svg>
