<svg xmlns="http://www.w3.org/2000/svg" width="132.455" height="33.693" viewBox="0 0 132.455 33.693">
  <g id="Group_4397" data-name="Group 4397" transform="translate(-100.272 -79.307)">
    <g id="Group_4230" data-name="Group 4230" transform="translate(-884.053 -397.576)">
      <g id="Group_3822" data-name="Group 3822" transform="translate(1109.781 484.092)">
        <text id="_" data-name="®" transform="translate(0 7)" fill="#020117" font-size="8" font-family="SegoeUI-Bold, Segoe UI" font-weight="700"><tspan x="0" y="0">®</tspan></text>
      </g>
      <path id="Path_39704" data-name="Path 39704" d="M15.416-78.566a14.315,14.315,0,0,1-5.323-.915,7.754,7.754,0,0,1-3.567-2.708,7.3,7.3,0,0,1-1.27-4.333,7.572,7.572,0,0,1,1.233-4.333,8,8,0,0,1,3.53-2.839,13.34,13.34,0,0,1,5.4-1.009,12.019,12.019,0,0,1,1.662.112q.8.112,1.588.3l9.376.037v3.661a14.342,14.342,0,0,1-3.866-.467,28.424,28.424,0,0,1-3.455-1.1l-.112-.261A12.492,12.492,0,0,1,23-90.948a7.5,7.5,0,0,1,1.812,2.017A4.977,4.977,0,0,1,25.5-86.3a7.009,7.009,0,0,1-1.233,4.165,7.687,7.687,0,0,1-3.493,2.652A14.245,14.245,0,0,1,15.416-78.566Zm6.238,10.5v-.9a2.57,2.57,0,0,0-1.1-2.391,5.755,5.755,0,0,0-3.007-.672h-5.79a12.856,12.856,0,0,1-2.82-.261,5,5,0,0,1-1.812-.747,2.894,2.894,0,0,1-.971-1.139,3.329,3.329,0,0,1-.3-1.4,2.7,2.7,0,0,1,.971-2.26A5.574,5.574,0,0,1,9.44-78.864a15.625,15.625,0,0,1,3.623-.112l2.353.411a15.981,15.981,0,0,0-3.493.392q-1.139.318-1.139,1.251a1.017,1.017,0,0,0,.448.878,2.175,2.175,0,0,0,1.27.317h6.089a14.772,14.772,0,0,1,4.277.542,5.031,5.031,0,0,1,2.708,1.83,5.91,5.91,0,0,1,.934,3.53v1.756ZM15.416-82.077a7.079,7.079,0,0,0,2.82-.523,4.243,4.243,0,0,0,1.886-1.513,4.12,4.12,0,0,0,.672-2.372,4.276,4.276,0,0,0-.672-2.428,4.334,4.334,0,0,0-1.868-1.55A6.833,6.833,0,0,0,15.416-91a7,7,0,0,0-2.839.542,4.3,4.3,0,0,0-1.905,1.55A4.276,4.276,0,0,0,10-86.484a4.12,4.12,0,0,0,.672,2.372A4.243,4.243,0,0,0,12.559-82.6,7.182,7.182,0,0,0,15.416-82.077ZM31.59-101.762h4.856v26.035H31.59ZM52.284-75.278A15.875,15.875,0,0,1,46.1-76.4a9.318,9.318,0,0,1-4.165-3.268,9.029,9.029,0,0,1-1.494-5.285,9.2,9.2,0,0,1,1.494-5.323A9.222,9.222,0,0,1,46.1-93.582,15.875,15.875,0,0,1,52.284-94.7a15.6,15.6,0,0,1,6.145,1.121,9.25,9.25,0,0,1,4.128,3.306,9.2,9.2,0,0,1,1.494,5.323,9.029,9.029,0,0,1-1.494,5.285A9.347,9.347,0,0,1,58.428-76.4,15.6,15.6,0,0,1,52.284-75.278Zm0-3.735a8.489,8.489,0,0,0,3.493-.691,5.662,5.662,0,0,0,2.447-2.017,5.634,5.634,0,0,0,.9-3.231,5.815,5.815,0,0,0-.9-3.268A5.717,5.717,0,0,0,55.8-90.295,8.263,8.263,0,0,0,52.284-91a8.425,8.425,0,0,0-3.511.71,5.847,5.847,0,0,0-2.484,2.054,5.7,5.7,0,0,0-.915,3.287,5.634,5.634,0,0,0,.9,3.231A5.644,5.644,0,0,0,48.735-79.7,8.717,8.717,0,0,0,52.284-79.014Zm26.3,3.735A15.875,15.875,0,0,1,72.4-76.4a9.318,9.318,0,0,1-4.165-3.268,9.029,9.029,0,0,1-1.494-5.285,9.2,9.2,0,0,1,1.494-5.323A9.222,9.222,0,0,1,72.4-93.582,15.875,15.875,0,0,1,78.581-94.7a15.6,15.6,0,0,1,6.145,1.121,9.25,9.25,0,0,1,4.128,3.306,9.2,9.2,0,0,1,1.494,5.323,9.029,9.029,0,0,1-1.494,5.285A9.347,9.347,0,0,1,84.725-76.4,15.6,15.6,0,0,1,78.581-75.278Zm0-3.735a8.489,8.489,0,0,0,3.493-.691,5.662,5.662,0,0,0,2.447-2.017,5.634,5.634,0,0,0,.9-3.231,5.815,5.815,0,0,0-.9-3.268,5.717,5.717,0,0,0-2.428-2.073A8.263,8.263,0,0,0,78.581-91a8.425,8.425,0,0,0-3.511.71,5.847,5.847,0,0,0-2.484,2.054,5.7,5.7,0,0,0-.915,3.287,5.634,5.634,0,0,0,.9,3.231A5.644,5.644,0,0,0,75.032-79.7,8.717,8.717,0,0,0,78.581-79.014Zm38.81-.075-1.531-.037,6.051-15.165h5.341l-8.18,18.565h-4.557l-5.977-14.979h1.644l-6.163,14.979H99.461L91.5-94.291h5.342l5.827,15.2h-1.531l5.454-15.2h5.566Z" transform="translate(979.069 578.645)" fill="#020117"/>
    </g>
  </g>
</svg>
