<svg xmlns="http://www.w3.org/2000/svg" width="84" height="84" viewBox="0 0 84 84">
  <g id="Group_50650" data-name="Group 50650" transform="translate(-919 -987)">
    <g id="Group_50649" data-name="Group 50649" transform="translate(566.41 111)">
      <g id="Ellipse_1339" data-name="Ellipse 1339" transform="translate(352.59 876)" fill="none" stroke="#fff" stroke-width="2">
        <circle cx="42" cy="42" r="42" stroke="none"/>
        <circle cx="42" cy="42" r="41" fill="none"/>
      </g>
      <path id="Path_45557" data-name="Path 45557" d="M4.87,2.681a1.542,1.542,0,0,1-1.229-.539A2.148,2.148,0,0,1,3.177.691V-17.743A2.151,2.151,0,0,1,3.641-19.2a1.542,1.542,0,0,1,1.229-.539,2.129,2.129,0,0,1,.766.14,5.422,5.422,0,0,1,.794.39l15.244,8.828a4.395,4.395,0,0,1,1.181.886,1.457,1.457,0,0,1,.341.964,1.45,1.45,0,0,1-.341.97,4.488,4.488,0,0,1-1.181.88L6.43,2.152a5.371,5.371,0,0,1-.794.389A2.137,2.137,0,0,1,4.87,2.681Z" transform="translate(382.108 926.527)" fill="#fff"/>
    </g>
  </g>
</svg>
